Patient4_TMGait_0pt5_01_left_14_EMG.mot
version=1
nRows=13
nColumns=33
inDegrees=no
endheader
time	1LAddLong	2LGlutMax	3LGlutMed	4LIliopsoas	5LSemiMemb	6LBicFemLong	7LRecFem	8LVastMed	9LVastLat	10LGasMed	11LTibAnt	12lTibPost	13LPeroneusLong	14LSol	15LExtDigLong	16LFlexDigLong	17RAddLong	18RGlutMax	19RGlutMed	20RIliopsoas	21RSemiMemb	22RBicFemLong	23RRecFem	24RVastMed	25RVastLat	26RGasMed	27RTibAnt	28RTibPost	29RPeroneusLong	30RSol	31RExtDigLong	32RFlexDigLong
19.157	0.032043	0.86166	0.16739	0.002441	0.005646	0.16144	-0.10788	0.04364	-0.10742	-0.092621	0.010376	0.032501	-0.01236	-0.089569	0.026245	0.11459	0.068665	0.010834	0.031891	0	-0.038452	0.44388	0.2565	-0.02243	-0.009003	-0.023651	0.04303	-0.00824	-0.33722	0.38757	-0.006409	-0.005493
19.158	0.018921	0.93124	0.057831	0.018921	-0.01709	0.15533	-0.15579	0.029907	-0.11383	-0.17029	0.024261	0.014801	-0.075989	-0.2066	0.034485	1.0667	0.027008	-0.065918	0.038757	-0.076904	-0.058289	0.23773	0.19516	-0.071869	0.013733	-0.023956	0.011902	-0.01709	0.15366	0.44556	-0.001831	-0.007172
19.159	0.014038	0.93704	-0.016632	0.021057	-0.050507	0.19287	-0.1474	0.019684	-0.093842	0.035858	0.00946	0.012665	-0.075684	-0.22354	0.027161	-0.3656	-0.045471	-0.084839	0.034332	-0.088348	-0.09491	0.086975	0.17456	-0.053406	0.024414	-0.037231	0.000153	-0.21439	-0.026245	0.21912	-0.000153	-0.005035
19.16	0.005035	0.76935	-0.12039	0.038757	-0.10666	0.31555	-0.24643	-0.001068	-0.10193	0.23209	-0.001678	0.00061	-0.14542	-0.18585	0.004425	0.11627	-0.09079	-0.063171	0.007324	-0.080414	-0.036774	-0.05188	0.24368	-0.085297	0.015717	-0.028992	-0.059052	-0.19333	0.32974	-0.38986	-0.002289	-0.015564
19.161	0.010529	0.60745	-0.17578	0.003662	-0.14389	0.35904	-0.31693	-0.025024	0.043335	0.31067	-0.008545	0.002747	0.000305	-0.1445	-0.002441	0.23041	-0.12009	-0.018005	0.036316	-0.067749	0.024872	-0.14801	0.21881	-0.10071	0.006104	-0.018768	-0.096893	0.16342	0.61874	-0.5246	-0.00061	-0.014038
19.162	0.016022	0.48645	-0.28091	-0.023193	-0.16144	0.28976	-0.32455	-0.015869	0.29587	0.12512	0.00061	-0.001984	0.19379	-0.040131	-0.028687	0.27206	-0.098267	-0.036163	0.026398	0.00351	0.022278	-0.13931	0.18036	-0.078583	0.021057	0.007019	-0.022736	0.076141	0.51346	-0.20096	-0.002136	-0.007324
19.163	0.007782	0.41916	-0.3183	-0.015259	-0.12238	0.13947	-0.27405	0.000763	0.29892	0.19333	-0.002747	0.011902	0.11139	0.006714	-0.006561	0.044708	-0.028534	-0.11032	0.093079	0.14771	-0.03418	-0.10101	0.11581	-0.019684	0.033417	0.010986	0.067902	-0.004883	0.020447	-0.13168	0.001678	-0.010681
19.164	0.001373	0.47134	-0.25971	0.012207	-0.013428	0.12589	-0.21973	0.006409	0.16876	0.34317	-0.003967	0.036163	0.032806	0.039825	0.042419	-0.44327	0.007324	-0.074615	0.067291	0.15717	-0.069427	0.04776	0.12344	-0.050507	0.027008	0.008698	0.073853	0.031433	-0.5986	-0.50522	-0.003662	0.001526
19.165	-0.014648	0.57434	-0.11704	0.002594	-0.015564	0.13397	-0.23071	0.007629	-0.075684	0.23407	-0.014038	0.025482	0.043945	-0.001678	0.043488	-0.028687	0.032196	-0.059357	0.003815	0.12009	-0.014191	0.075378	0.17777	-0.082245	0.010376	-0.006104	0.077515	0.088196	-0.87311	-0.28381	-0.00061	-0.000916
19.166	-0.021057	0.61539	-0.067902	-0.003967	-0.072937	0.032501	-0.28076	0.043335	-0.17578	0.56427	-0.016022	0.042419	0.057678	-0.029602	0.068512	0.30548	-0.010071	-0.069275	0.070801	0.070343	0.06897	0.10193	0.17624	-0.10254	0.007477	-0.013733	0.12482	0.028381	-0.85785	-0.084839	-0.005951	-0.004578
19.167	-0.00946	0.46768	-0.033875	0.001678	-0.14648	-0.084076	-0.3685	0.029755	-0.16724	0.60715	-0.007477	0.049286	0.012207	0.08316	-0.013428	-0.001068	-0.000916	-0.007935	0.067596	0.018311	0.063324	0.13336	0.17777	-0.08255	0.017242	-0.013275	0.063477	-0.078278	-0.38666	-0.23666	-0.001068	-0.011292
19.168	0.022888	0.33737	-0.11078	-0.005188	-0.13428	-0.62958	-0.41611	0.016937	-0.19852	-0.00824	0.002136	-0.08194	-0.041656	-0.036316	-0.067444	-0.54321	-0.014496	0.002594	0.065002	0.022278	-0.004272	0.021057	0.12573	-0.084076	0.010834	-0.001984	-0.016479	-0.10208	0.084991	-0.055847	-0.003357	-0.006866
19.169	0.039063	0.18249	-0.21378	-0.005798	-0.019684	-0.56168	-0.44723	-0.00824	0.023193	-0.75089	0.009918	-0.055695	-0.11917	0.054932	-0.10757	0.43457	-0.034485	-0.041809	-0.043793	0.10483	-0.10239	0.10407	0.040283	-0.032196	0.046387	0.017853	-0.013428	0.087585	0.68756	0.3978	-0.000458	-0.010223
